<svg aria-hidden="true" width="25" height="25" viewBox="0 0 25 25" fill="none" xmlns="http://www.w3.org/2000/svg">
    <path fill-rule="evenodd" clip-rule="evenodd" d="M12.3035 0.0615234C5.50583 0.0615234 0 5.56735 0 12.365C0 17.8094 3.52188 22.4078 8.41254 24.038C9.02771 24.1457 9.2584 23.7766 9.2584 23.4536C9.2584 23.1614 9.24302 22.1925 9.24302 21.1621C6.15176 21.7311 5.35203 20.4085 5.10596 19.7164C4.96755 19.3627 4.36775 18.2707 3.84485 17.9785C3.41423 17.7478 2.79905 17.1788 3.82947 17.1634C4.79838 17.148 5.49045 18.0554 5.72114 18.4245C6.82846 20.2854 8.59709 19.7625 9.30454 19.4396C9.4122 18.6398 9.73516 18.1016 10.0889 17.794C7.35136 17.4864 4.49079 16.4252 4.49079 11.7191C4.49079 10.3811 4.96755 9.27379 5.7519 8.41254C5.62886 8.10495 5.19824 6.84384 5.87493 5.15211C5.87493 5.15211 6.90535 4.82914 9.2584 6.41322C10.2427 6.13639 11.2885 5.99797 12.3343 5.99797C13.3801 5.99797 14.4259 6.13639 15.4102 6.41322C17.7632 4.81376 18.7936 5.15211 18.7936 5.15211C19.4703 6.84384 19.0397 8.10495 18.9167 8.41254C19.701 9.27379 20.1778 10.3657 20.1778 11.7191C20.1778 16.4406 17.3018 17.4864 14.5643 17.794C15.0103 18.1785 15.3948 18.9167 15.3948 20.0701C15.3948 21.7157 15.3794 23.0384 15.3794 23.4536C15.3794 23.7766 15.6101 24.1611 16.2253 24.038C21.0852 22.4078 24.6071 17.794 24.6071 12.365C24.6071 5.56735 19.1012 0.0615234 12.3035 0.0615234Z" fill="#FCFCFC"/>
</svg>
