<?xml version="1.0" encoding="utf-8"?>
<!-- Generator: Adobe Illustrator 26.1.0, SVG Export Plug-In . SVG Version: 6.00 Build 0)  -->
<svg version="1.1" id="Ebene_1" xmlns="http://www.w3.org/2000/svg" xmlns:xlink="http://www.w3.org/1999/xlink" x="0px" y="0px"
	 viewBox="0 0 960 540" style="enable-background:new 0 0 960 540;" xml:space="preserve">
<style type="text/css">
	.st0{fill:#101820;}
	.st1{fill:#ED6B1D;}
</style>
<g>
	<path class="st0" d="M209.5,205.2v26.9c-0.4,0-0.9,0-1.3,0c-8.7,0-16.4,4.2-21.2,10.6c0,0,0,0,0,0c-1.6,1.8-2.8,4-3.6,6.7
		c-0.7,2.1-1,4.5-1,7.1v40.9h-27.2v-39c0-0.7,0-1.3,0-2c0.7-19,11.5-35.5,27.1-44.2c6.2-3.5,13.2-5.8,20.6-6.5c0,0,0,0,0.1,0
		C205.1,205.4,207.3,205.2,209.5,205.2z"/>
	<path class="st0" d="M526,252.3c0-27.3-19.6-47.8-46-47.8c-28.6,0-48.1,20.8-48.1,47.8c0,27,19.2,47.8,50.1,47.8
		c17.2,0,30.6-6.3,39.5-18.6L499.8,269c-3.6,4-10,6.9-17.4,6.9c-10,0-18.3-3.3-21.7-12.7h64.3C525.7,259.7,526,256.1,526,252.3z
		 M460.1,242.9c2.5-9.2,9.4-14.3,19.7-14.3c8.1,0,16.3,3.8,19.2,14.3H460.1z"/>
	<path class="st0" d="M627.4,252.3c0-27.3-19.6-47.8-46-47.8c-28.6,0-48.2,20.8-48.2,47.8c0,27,19.2,47.8,50.1,47.8
		c17.2,0,30.6-6.3,39.5-18.6L601.2,269c-3.6,4-9.9,6.9-17.4,6.9c-9.9,0-18.3-3.3-21.7-12.7h64.3
		C627.1,259.7,627.4,256.1,627.4,252.3z M561.5,242.9c2.5-9.2,9.4-14.3,19.7-14.3c8.1,0,16.3,3.8,19.2,14.3H561.5z"/>
	<path class="st0" d="M690.4,252.3l32.9-45.3h-31.7l-27.2,39.6v-75.9h-27.2v126.7h27.2v-40l29,40h30.8L690.4,252.3z"/>
	<g>
		<path class="st0" d="M262.9,204.5c-10.3,0-19.8,3.1-27.7,8.5c-7.5,5.2-13.4,12.5-16.9,21.2c-2.2,5.5-3.5,11.7-3.5,18.1
			c0,10.5,3.2,20,8.7,27.8c5.3,7.5,12.7,13.3,21.4,16.6c5.5,2.2,11.6,3.4,17.9,3.4c26.6,0,48-20.8,48-47.8
			C310.9,225.3,289.5,204.5,262.9,204.5z M262.9,273.7c-1.3,0-2.6-0.1-3.8-0.3c-9.9-1.6-17-9.6-17-21.1c0-9.5,4.9-16.6,12.3-19.7
			c2.6-1.1,5.5-1.7,8.5-1.7c11.8,0,20.8,8.5,20.8,21.4C283.7,265.2,274.7,273.7,262.9,273.7z"/>
	</g>
	<path class="st0" d="M421,206.8v90c0,31.8-24.8,45.3-50,45.3c-19.7,0-36.2-7.4-44.9-22.9l24.3-14c3.6,6.6,9.1,11.9,21.6,11.9
		c13.3,0,21.4-6.8,21.4-20.3v-8.7c-6.3,7.8-15.3,12.3-27.7,12.3c-26.9,0-46.6-22-46.6-48.1c0-26.1,19.7-48.1,46.6-48.1
		c12.3,0,21.4,4.5,27.7,12.3v-9.7H421z M393.3,252.3c0-13.1-9.5-22-22.9-22s-22.9,8.9-22.9,22c0,13.1,9.5,22,22.9,22
		S393.3,265.3,393.3,252.3z"/>
	<path class="st0" d="M140.8,231.3c-4.7-9.5-12.4-17-21.9-21.5c-6.2-2.9-13.1-4.5-20.5-4.5h0c-7.4,0-14.3,1.6-20.5,4.5
		c-2.4,1.1-4.6,2.4-6.7,3.9c-6.4,4.5-11.7,10.5-15.2,17.6c-0.5,1.1-1,2.1-1.4,3.2c-2.2,5.5-3.4,11.5-3.4,17.8v21.1h26.8v-21.1
		c0-9.4,4.9-16.4,12.1-19.4c2.5-1.1,5.4-1.6,8.4-1.6h0c11.6,0,20.5,8.4,20.5,21c0,12.7-8.9,21.1-20.5,21.1v26
		c7.4,0,14.3-1.6,20.5-4.5c9.5-4.5,17.3-12,21.9-21.5c3.1-6.3,4.8-13.4,4.8-21.1C145.6,244.7,143.9,237.6,140.8,231.3z"/>
	<rect x="51.1" y="299.4" class="st1" width="26.8" height="20.8"/>
	<path class="st0" d="M438,355.7v-2.3l12.2-7.1v2.4l-10.1,5.7v0.2l10.1,5.7v2.4L438,355.7z"/>
	<path class="st1" d="M461.5,363.5c-1.1,0-2-0.2-2.8-0.6c-0.8-0.4-1.5-0.9-2.1-1.5c-0.6-0.7-1-1.5-1.3-2.4c-0.3-0.9-0.4-2-0.4-3.1
		c0-1.2,0.2-2.2,0.5-3.1c0.3-0.9,0.7-1.8,1.3-2.4c0.6-0.7,1.3-1.2,2.1-1.5c0.8-0.4,1.7-0.5,2.8-0.5c1.4,0,2.6,0.3,3.5,0.9
		c0.9,0.6,1.5,1.4,2,2.4l-1.8,1c-0.3-0.8-0.7-1.3-1.3-1.8c-0.6-0.4-1.4-0.6-2.3-0.6c-0.7,0-1.2,0.1-1.8,0.3c-0.5,0.2-1,0.5-1.3,0.9
		c-0.4,0.4-0.6,0.9-0.8,1.4c-0.2,0.5-0.3,1.1-0.3,1.8v2.5c0,0.6,0.1,1.2,0.3,1.8c0.2,0.5,0.4,1,0.8,1.4c0.4,0.4,0.8,0.7,1.3,0.9
		c0.5,0.2,1.1,0.3,1.8,0.3c1,0,1.8-0.2,2.4-0.7c0.6-0.5,1.1-1.1,1.5-1.9l1.6,1.1c-0.4,1-1.1,1.8-2,2.4
		C464.2,363.2,463,363.5,461.5,363.5z"/>
	<path class="st1" d="M478,363.5c-1,0-1.9-0.2-2.8-0.5c-0.8-0.4-1.5-0.9-2.1-1.5c-0.6-0.7-1-1.5-1.3-2.4c-0.3-0.9-0.5-2-0.5-3.2
		c0-1.2,0.1-2.2,0.5-3.1c0.3-0.9,0.7-1.8,1.3-2.4s1.3-1.2,2.1-1.5c0.8-0.4,1.7-0.5,2.8-0.5c1,0,1.9,0.2,2.8,0.5
		c0.8,0.4,1.5,0.9,2.1,1.5s1,1.5,1.3,2.4c0.3,0.9,0.5,2,0.5,3.1c0,1.2-0.2,2.2-0.5,3.2c-0.3,0.9-0.7,1.7-1.3,2.4
		c-0.6,0.7-1.3,1.2-2.1,1.5C480,363.3,479,363.5,478,363.5z M478,361.6c1.3,0,2.3-0.4,3.1-1.1c0.8-0.8,1.2-1.9,1.2-3.5v-2.1
		c0-1.6-0.4-2.8-1.2-3.5c-0.8-0.8-1.8-1.1-3.1-1.1s-2.3,0.4-3.1,1.1c-0.8,0.8-1.2,1.9-1.2,3.5v2.1c0,1.6,0.4,2.8,1.2,3.5
		C475.7,361.2,476.8,361.6,478,361.6z"/>
	<path class="st1" d="M498.6,360.8h-0.1c-0.9,1.8-2.4,2.7-4.5,2.7c-1.8,0-3.2-0.7-4.2-2c-1-1.3-1.5-3.2-1.5-5.6
		c0-2.4,0.5-4.3,1.5-5.6c1-1.3,2.4-2,4.2-2c2.1,0,3.6,0.9,4.5,2.7h0.1v-8.7h2.3v21h-2.3V360.8z M494.8,361.5c0.5,0,1-0.1,1.4-0.2
		c0.5-0.1,0.9-0.3,1.2-0.6c0.3-0.3,0.6-0.6,0.8-0.9c0.2-0.4,0.3-0.8,0.3-1.3v-5.3c0-0.5-0.1-0.9-0.3-1.3c-0.2-0.4-0.5-0.7-0.8-0.9
		c-0.3-0.3-0.7-0.4-1.2-0.6c-0.5-0.1-0.9-0.2-1.4-0.2c-1.3,0-2.3,0.4-3.1,1.2c-0.7,0.8-1.1,1.9-1.1,3.2v2.5c0,1.3,0.4,2.4,1.1,3.2
		C492.5,361.1,493.5,361.5,494.8,361.5z"/>
	<path class="st1" d="M506.5,361.2h5.3v-10.7h-5.3v-2h7.5v12.7h4.9v2h-12.5V361.2z M512.9,345.3c-0.7,0-1.1-0.1-1.4-0.4
		c-0.3-0.3-0.4-0.6-0.4-1v-0.5c0-0.4,0.1-0.8,0.4-1c0.3-0.3,0.7-0.4,1.4-0.4c0.7,0,1.1,0.1,1.4,0.4c0.3,0.3,0.4,0.6,0.4,1v0.5
		c0,0.4-0.1,0.8-0.4,1C514,345.2,513.6,345.3,512.9,345.3z"/>
	<path class="st1" d="M523.3,363.2v-14.6h2.3v2.4h0.1c0.2-0.4,0.3-0.7,0.6-1s0.5-0.6,0.8-0.9c0.3-0.2,0.7-0.4,1.2-0.6
		c0.5-0.1,1-0.2,1.6-0.2c1.5,0,2.8,0.5,3.7,1.5c0.9,1,1.4,2.3,1.4,4.1v9.4h-2.3v-9c0-1.3-0.3-2.3-0.9-3c-0.6-0.6-1.4-1-2.6-1
		c-0.5,0-0.9,0.1-1.3,0.2c-0.4,0.1-0.8,0.3-1.2,0.5c-0.3,0.2-0.6,0.5-0.8,0.9c-0.2,0.4-0.3,0.8-0.3,1.2v10.1H523.3z"/>
	<path class="st1" d="M553.4,364.9c0,1.5-0.6,2.6-1.8,3.3c-1.2,0.7-3.1,1.1-5.5,1.1c-2.4,0-4.1-0.3-5.1-0.9c-1-0.6-1.5-1.5-1.5-2.7
		c0-0.8,0.2-1.4,0.6-1.8c0.4-0.4,1-0.8,1.8-1v-0.3c-0.4-0.2-0.7-0.5-1-0.8c-0.2-0.3-0.3-0.7-0.3-1.2c0-0.8,0.3-1.3,0.8-1.7
		c0.5-0.4,1.1-0.7,1.9-0.8v-0.1c-0.9-0.4-1.6-1-2.1-1.8c-0.5-0.8-0.8-1.7-0.8-2.7c0-0.7,0.1-1.4,0.4-2c0.3-0.6,0.6-1.2,1.1-1.6
		c0.5-0.4,1.1-0.8,1.8-1c0.7-0.2,1.5-0.4,2.3-0.4c1.1,0,2.1,0.2,2.9,0.6v-0.3c0-0.6,0.1-1,0.4-1.4c0.3-0.4,0.7-0.6,1.4-0.6h2.7v2
		H550v1c0.5,0.5,0.9,1,1.2,1.6s0.4,1.3,0.4,2.1c0,0.7-0.1,1.4-0.4,2s-0.7,1.2-1.1,1.6c-0.5,0.4-1.1,0.8-1.8,1
		c-0.7,0.2-1.5,0.4-2.3,0.4c-0.2,0-0.5,0-0.7,0c-0.2,0-0.5,0-0.7-0.1c-0.2,0-0.5,0.1-0.7,0.2c-0.2,0.1-0.5,0.2-0.7,0.3
		s-0.4,0.3-0.5,0.5s-0.2,0.4-0.2,0.7c0,0.4,0.2,0.7,0.7,0.9c0.4,0.1,1,0.2,1.7,0.2h3.2c1.9,0,3.3,0.4,4.1,1.1
		C553,362.7,553.4,363.7,553.4,364.9z M551.3,364.9c0-0.6-0.2-1.1-0.7-1.4c-0.5-0.4-1.3-0.5-2.5-0.5H543c-1,0.4-1.5,1.1-1.5,2
		c0,0.6,0.3,1.2,0.8,1.7c0.5,0.5,1.4,0.7,2.5,0.7h2.2c1.3,0,2.4-0.2,3.1-0.6C550.9,366.3,551.3,365.7,551.3,364.9z M545.9,356.5
		c1.1,0,2-0.3,2.5-0.8c0.5-0.5,0.8-1.2,0.8-2.1v-0.8c0-0.9-0.3-1.6-0.8-2.1c-0.5-0.5-1.4-0.8-2.5-0.8c-1.1,0-2,0.3-2.5,0.8
		c-0.5,0.5-0.8,1.2-0.8,2.1v0.8c0,0.9,0.3,1.6,0.8,2.1C543.9,356.3,544.8,356.5,545.9,356.5z"/>
	<path class="st1" d="M574.2,342.2h2.3v8.7h0.1c0.9-1.8,2.4-2.7,4.5-2.7c1.8,0,3.2,0.7,4.2,2c1,1.3,1.5,3.2,1.5,5.6
		c0,2.4-0.5,4.3-1.5,5.6s-2.4,2-4.2,2c-2.1,0-3.6-0.9-4.5-2.7h-0.1v2.4h-2.3V342.2z M580.2,361.5c1.3,0,2.3-0.4,3.1-1.2
		c0.7-0.8,1.1-1.9,1.1-3.2v-2.5c0-1.3-0.4-2.4-1.1-3.2c-0.7-0.8-1.8-1.2-3.1-1.2c-0.5,0-1,0.1-1.4,0.2c-0.5,0.1-0.9,0.3-1.2,0.6
		c-0.3,0.3-0.6,0.6-0.8,0.9c-0.2,0.4-0.3,0.8-0.3,1.3v5.3c0,0.5,0.1,0.9,0.3,1.3c0.2,0.4,0.5,0.7,0.8,0.9c0.3,0.3,0.7,0.4,1.2,0.6
		C579.2,361.4,579.7,361.5,580.2,361.5z"/>
	<path class="st1" d="M597.2,363.5c-1.1,0-2-0.2-2.8-0.5c-0.8-0.4-1.6-0.9-2.2-1.5c-0.6-0.7-1.1-1.5-1.4-2.4c-0.3-0.9-0.5-2-0.5-3.1
		c0-1.2,0.2-2.2,0.5-3.2c0.3-0.9,0.8-1.8,1.4-2.4c0.6-0.7,1.3-1.2,2.1-1.5c0.8-0.4,1.7-0.5,2.7-0.5c1,0,1.9,0.2,2.7,0.5
		c0.8,0.4,1.5,0.9,2.1,1.5c0.6,0.6,1,1.4,1.3,2.2c0.3,0.9,0.5,1.8,0.5,2.9v1.1h-10.8v0.7c0,0.6,0.1,1.2,0.3,1.8
		c0.2,0.5,0.5,1,0.9,1.4s0.9,0.7,1.4,0.9c0.6,0.2,1.2,0.3,1.9,0.3c1,0,1.8-0.2,2.5-0.7c0.7-0.5,1.3-1.1,1.6-1.9l1.7,1.1
		c-0.4,1-1.2,1.8-2.2,2.4C599.9,363.2,598.7,363.5,597.2,363.5z M597.1,350.1c-0.6,0-1.2,0.1-1.7,0.3c-0.5,0.2-1,0.5-1.4,0.9
		c-0.4,0.4-0.7,0.9-0.9,1.4c-0.2,0.5-0.3,1.1-0.3,1.8v0.2h8.4v-0.3c0-0.6-0.1-1.2-0.3-1.8c-0.2-0.5-0.5-1-0.8-1.4
		c-0.3-0.4-0.8-0.7-1.3-0.9C598.2,350.2,597.7,350.1,597.1,350.1z"/>
	<path class="st1" d="M618.7,348.6h2.3l-7.3,17.8c-0.2,0.4-0.4,0.8-0.6,1.1c-0.2,0.3-0.5,0.6-0.7,0.8c-0.3,0.2-0.6,0.4-1,0.5
		s-0.9,0.2-1.4,0.2h-2.2v-2h3.4l1.6-4l-5.9-14.3h2.3l2.5,6.1l2.2,5.5h0.1l2.2-5.5L618.7,348.6z"/>
	<path class="st1" d="M630.9,363.5c-1,0-1.9-0.2-2.8-0.5c-0.8-0.4-1.5-0.9-2.1-1.5c-0.6-0.7-1-1.5-1.3-2.4c-0.3-0.9-0.5-2-0.5-3.2
		c0-1.2,0.1-2.2,0.5-3.1c0.3-0.9,0.7-1.8,1.3-2.4c0.6-0.7,1.3-1.2,2.1-1.5c0.8-0.4,1.7-0.5,2.8-0.5c1,0,1.9,0.2,2.8,0.5
		c0.8,0.4,1.5,0.9,2.1,1.5c0.6,0.7,1,1.5,1.3,2.4c0.3,0.9,0.5,2,0.5,3.1c0,1.2-0.2,2.2-0.5,3.2c-0.3,0.9-0.7,1.7-1.3,2.4
		c-0.6,0.7-1.3,1.2-2.1,1.5C632.9,363.3,632,363.5,630.9,363.5z M630.9,361.6c1.3,0,2.3-0.4,3.1-1.1c0.8-0.8,1.2-1.9,1.2-3.5v-2.1
		c0-1.6-0.4-2.8-1.2-3.5c-0.8-0.8-1.8-1.1-3.1-1.1s-2.3,0.4-3.1,1.1c-0.8,0.8-1.2,1.9-1.2,3.5v2.1c0,1.6,0.4,2.8,1.2,3.5
		C628.7,361.2,629.7,361.6,630.9,361.6z"/>
	<path class="st1" d="M642.2,363.2v-14.6h2.3v2.4h0.1c0.2-0.4,0.3-0.7,0.6-1s0.5-0.6,0.8-0.9c0.3-0.2,0.7-0.4,1.2-0.6
		c0.5-0.1,1-0.2,1.6-0.2c1.5,0,2.8,0.5,3.7,1.5c0.9,1,1.4,2.3,1.4,4.1v9.4h-2.3v-9c0-1.3-0.3-2.3-0.9-3c-0.6-0.6-1.4-1-2.6-1
		c-0.5,0-0.9,0.1-1.3,0.2c-0.4,0.1-0.8,0.3-1.2,0.5c-0.3,0.2-0.6,0.5-0.8,0.9c-0.2,0.4-0.3,0.8-0.3,1.2v10.1H642.2z"/>
	<path class="st1" d="M668.5,360.8h-0.1c-0.9,1.8-2.4,2.7-4.5,2.7c-1.8,0-3.2-0.7-4.2-2c-1-1.3-1.5-3.2-1.5-5.6
		c0-2.4,0.5-4.3,1.5-5.6c1-1.3,2.4-2,4.2-2c2.1,0,3.6,0.9,4.5,2.7h0.1v-8.7h2.3v21h-2.3V360.8z M664.7,361.5c0.5,0,1-0.1,1.4-0.2
		c0.5-0.1,0.9-0.3,1.2-0.6c0.3-0.3,0.6-0.6,0.8-0.9c0.2-0.4,0.3-0.8,0.3-1.3v-5.3c0-0.5-0.1-0.9-0.3-1.3c-0.2-0.4-0.5-0.7-0.8-0.9
		c-0.3-0.3-0.7-0.4-1.2-0.6c-0.5-0.1-0.9-0.2-1.4-0.2c-1.3,0-2.3,0.4-3.1,1.2c-0.7,0.8-1.1,1.9-1.1,3.2v2.5c0,1.3,0.4,2.4,1.1,3.2
		S663.4,361.5,664.7,361.5z"/>
	<path class="st1" d="M693.4,361.2h5.3v-10.7h-5.3v-2h7.5v12.7h4.9v2h-12.5V361.2z M699.8,345.3c-0.7,0-1.1-0.1-1.4-0.4
		c-0.3-0.3-0.4-0.6-0.4-1v-0.5c0-0.4,0.1-0.8,0.4-1c0.3-0.3,0.7-0.4,1.4-0.4c0.7,0,1.1,0.1,1.4,0.4c0.3,0.3,0.4,0.6,0.4,1v0.5
		c0,0.4-0.1,0.8-0.4,1C700.9,345.2,700.5,345.3,699.8,345.3z"/>
	<path class="st1" d="M708.9,363.2v-14.6h2.1v1.7h0.1c0.2-0.6,0.5-1,1-1.4s1-0.6,1.8-0.6c0.8,0,1.5,0.2,1.9,0.6
		c0.4,0.4,0.7,1,0.8,1.7h0.1c0.3-0.7,0.6-1.2,1.1-1.6c0.5-0.4,1.2-0.7,2-0.7c1.2,0,2,0.4,2.4,1.2c0.4,0.8,0.6,2,0.6,3.6v10.1h-2.1
		v-9.8c0-1.2-0.1-2.1-0.4-2.6c-0.3-0.5-0.7-0.7-1.4-0.7c-0.6,0-1.1,0.2-1.5,0.6c-0.4,0.4-0.6,1-0.6,1.8v10.7h-2.1v-9.8
		c0-1.2-0.1-2.1-0.4-2.6c-0.3-0.5-0.7-0.7-1.4-0.7c-0.6,0-1.1,0.2-1.5,0.6c-0.4,0.4-0.6,1-0.6,1.8v10.7H708.9z"/>
	<path class="st1" d="M738.4,363.2c-0.9,0-1.5-0.2-1.9-0.7c-0.4-0.5-0.6-1-0.7-1.7h-0.1c-0.3,0.8-0.8,1.5-1.5,2
		c-0.7,0.5-1.7,0.7-2.8,0.7c-1.5,0-2.7-0.4-3.7-1.2c-0.9-0.8-1.4-1.9-1.4-3.3c0-1.4,0.5-2.4,1.5-3.1c1-0.7,2.6-1.1,4.8-1.1h3.1v-1.4
		c0-1.1-0.3-1.9-0.9-2.4c-0.6-0.5-1.5-0.8-2.6-0.8c-1,0-1.8,0.2-2.4,0.6c-0.6,0.4-1.1,0.9-1.5,1.6l-1.5-1.1c0.2-0.4,0.4-0.7,0.8-1.1
		c0.3-0.4,0.7-0.7,1.2-1c0.5-0.3,1-0.5,1.6-0.7c0.6-0.2,1.3-0.2,2-0.2c1.7,0,3.1,0.4,4.1,1.3c1,0.9,1.5,2.1,1.5,3.6v8.1h2v2H738.4z
		 M731.7,361.6c0.6,0,1.1-0.1,1.6-0.2c0.5-0.1,0.9-0.3,1.3-0.6c0.4-0.2,0.6-0.5,0.8-0.8c0.2-0.3,0.3-0.7,0.3-1.1v-2.4h-3.1
		c-1.4,0-2.4,0.2-3,0.6c-0.6,0.4-0.9,0.9-0.9,1.6v0.6c0,0.8,0.3,1.3,0.8,1.7C730,361.4,730.7,361.6,731.7,361.6z"/>
	<path class="st1" d="M757.3,364.9c0,1.5-0.6,2.6-1.8,3.3c-1.2,0.7-3.1,1.1-5.5,1.1c-2.4,0-4.1-0.3-5.1-0.9c-1-0.6-1.5-1.5-1.5-2.7
		c0-0.8,0.2-1.4,0.6-1.8c0.4-0.4,1-0.8,1.8-1v-0.3c-0.4-0.2-0.7-0.5-1-0.8c-0.2-0.3-0.3-0.7-0.3-1.2c0-0.8,0.3-1.3,0.8-1.7
		c0.5-0.4,1.1-0.7,1.9-0.8v-0.1c-0.9-0.4-1.6-1-2.1-1.8c-0.5-0.8-0.8-1.7-0.8-2.7c0-0.7,0.1-1.4,0.4-2c0.3-0.6,0.6-1.2,1.1-1.6
		c0.5-0.4,1.1-0.8,1.8-1c0.7-0.2,1.5-0.4,2.3-0.4c1.1,0,2.1,0.2,2.9,0.6v-0.3c0-0.6,0.1-1,0.4-1.4s0.7-0.6,1.4-0.6h2.7v2h-3.3v1
		c0.5,0.5,0.9,1,1.2,1.6c0.3,0.6,0.4,1.3,0.4,2.1c0,0.7-0.1,1.4-0.4,2s-0.7,1.2-1.1,1.6c-0.5,0.4-1.1,0.8-1.8,1
		c-0.7,0.2-1.5,0.4-2.3,0.4c-0.2,0-0.5,0-0.7,0c-0.2,0-0.5,0-0.7-0.1c-0.2,0-0.5,0.1-0.7,0.2c-0.2,0.1-0.5,0.2-0.7,0.3
		s-0.4,0.3-0.5,0.5c-0.1,0.2-0.2,0.4-0.2,0.7c0,0.4,0.2,0.7,0.7,0.9c0.4,0.1,1,0.2,1.7,0.2h3.2c1.9,0,3.3,0.4,4.1,1.1
		C756.8,362.7,757.3,363.7,757.3,364.9z M755.1,364.9c0-0.6-0.2-1.1-0.7-1.4c-0.5-0.4-1.3-0.5-2.5-0.5h-5.1c-1,0.4-1.5,1.1-1.5,2
		c0,0.6,0.3,1.2,0.8,1.7c0.5,0.5,1.4,0.7,2.5,0.7h2.2c1.3,0,2.4-0.2,3.1-0.6C754.8,366.3,755.1,365.7,755.1,364.9z M749.8,356.5
		c1.1,0,2-0.3,2.5-0.8c0.5-0.5,0.8-1.2,0.8-2.1v-0.8c0-0.9-0.3-1.6-0.8-2.1c-0.5-0.5-1.4-0.8-2.5-0.8c-1.1,0-2,0.3-2.5,0.8
		c-0.5,0.5-0.8,1.2-0.8,2.1v0.8c0,0.9,0.3,1.6,0.8,2.1C747.8,356.3,748.7,356.5,749.8,356.5z"/>
	<path class="st1" d="M761.4,361.2h5.3v-10.7h-5.3v-2h7.5v12.7h4.9v2h-12.5V361.2z M767.8,345.3c-0.7,0-1.1-0.1-1.4-0.4
		c-0.3-0.3-0.4-0.6-0.4-1v-0.5c0-0.4,0.1-0.8,0.4-1c0.3-0.3,0.7-0.4,1.4-0.4c0.7,0,1.1,0.1,1.4,0.4c0.3,0.3,0.4,0.6,0.4,1v0.5
		c0,0.4-0.1,0.8-0.4,1C768.9,345.2,768.4,345.3,767.8,345.3z"/>
	<path class="st1" d="M778.1,363.2v-14.6h2.3v2.4h0.1c0.2-0.4,0.3-0.7,0.6-1s0.5-0.6,0.8-0.9c0.3-0.2,0.7-0.4,1.2-0.6
		c0.5-0.1,1-0.2,1.6-0.2c1.5,0,2.8,0.5,3.7,1.5c0.9,1,1.4,2.3,1.4,4.1v9.4h-2.3v-9c0-1.3-0.3-2.3-0.9-3c-0.6-0.6-1.4-1-2.6-1
		c-0.5,0-0.9,0.1-1.3,0.2c-0.4,0.1-0.8,0.3-1.2,0.5c-0.3,0.2-0.6,0.5-0.8,0.9c-0.2,0.4-0.3,0.8-0.3,1.2v10.1H778.1z"/>
	<path class="st1" d="M806.4,363.2c-0.9,0-1.5-0.2-1.9-0.7c-0.4-0.5-0.6-1-0.7-1.7h-0.1c-0.3,0.8-0.8,1.5-1.5,2
		c-0.7,0.5-1.7,0.7-2.8,0.7c-1.5,0-2.7-0.4-3.7-1.2c-0.9-0.8-1.4-1.9-1.4-3.3c0-1.4,0.5-2.4,1.5-3.1c1-0.7,2.6-1.1,4.8-1.1h3.1v-1.4
		c0-1.1-0.3-1.9-0.9-2.4c-0.6-0.5-1.5-0.8-2.6-0.8c-1,0-1.8,0.2-2.4,0.6c-0.6,0.4-1.1,0.9-1.5,1.6l-1.5-1.1c0.2-0.4,0.4-0.7,0.8-1.1
		c0.3-0.4,0.7-0.7,1.2-1c0.5-0.3,1-0.5,1.6-0.7c0.6-0.2,1.3-0.2,2-0.2c1.7,0,3.1,0.4,4.1,1.3c1,0.9,1.5,2.1,1.5,3.6v8.1h2v2H806.4z
		 M799.6,361.6c0.6,0,1.1-0.1,1.6-0.2c0.5-0.1,0.9-0.3,1.3-0.6c0.4-0.2,0.6-0.5,0.8-0.8c0.2-0.3,0.3-0.7,0.3-1.1v-2.4h-3.1
		c-1.4,0-2.4,0.2-3,0.6c-0.6,0.4-0.9,0.9-0.9,1.6v0.6c0,0.8,0.3,1.3,0.8,1.7C797.9,361.4,798.7,361.6,799.6,361.6z"/>
	<path class="st1" d="M818.6,363.2c-1.1,0-1.9-0.3-2.4-0.9c-0.5-0.6-0.8-1.4-0.8-2.4v-9.3h-4.9v-2h3.6c0.5,0,0.8-0.1,1-0.3
		c0.2-0.2,0.3-0.5,0.3-1v-3.8h2.2v5.2h6.7v2h-6.7v10.7h6.7v2H818.6z"/>
	<path class="st1" d="M829.3,361.2h5.3v-10.7h-5.3v-2h7.5v12.7h4.9v2h-12.5V361.2z M835.7,345.3c-0.7,0-1.1-0.1-1.4-0.4
		c-0.3-0.3-0.4-0.6-0.4-1v-0.5c0-0.4,0.1-0.8,0.4-1c0.3-0.3,0.7-0.4,1.4-0.4c0.7,0,1.1,0.1,1.4,0.4c0.3,0.3,0.4,0.6,0.4,1v0.5
		c0,0.4-0.1,0.8-0.4,1C836.9,345.2,836.4,345.3,835.7,345.3z"/>
	<path class="st1" d="M851.8,363.5c-1,0-1.9-0.2-2.8-0.5c-0.8-0.4-1.5-0.9-2.1-1.5c-0.6-0.7-1-1.5-1.3-2.4c-0.3-0.9-0.5-2-0.5-3.2
		c0-1.2,0.1-2.2,0.5-3.1c0.3-0.9,0.7-1.8,1.3-2.4c0.6-0.7,1.3-1.2,2.1-1.5c0.8-0.4,1.7-0.5,2.8-0.5c1,0,1.9,0.2,2.8,0.5
		c0.8,0.4,1.5,0.9,2.1,1.5c0.6,0.7,1,1.5,1.3,2.4c0.3,0.9,0.5,2,0.5,3.1c0,1.2-0.2,2.2-0.5,3.2c-0.3,0.9-0.7,1.7-1.3,2.4
		c-0.6,0.7-1.3,1.2-2.1,1.5C853.8,363.3,852.8,363.5,851.8,363.5z M851.8,361.6c1.3,0,2.3-0.4,3.1-1.1c0.8-0.8,1.2-1.9,1.2-3.5v-2.1
		c0-1.6-0.4-2.8-1.2-3.5c-0.8-0.8-1.8-1.1-3.1-1.1s-2.3,0.4-3.1,1.1c-0.8,0.8-1.2,1.9-1.2,3.5v2.1c0,1.6,0.4,2.8,1.2,3.5
		C849.5,361.2,850.6,361.6,851.8,361.6z"/>
	<path class="st1" d="M863.1,363.2v-14.6h2.3v2.4h0.1c0.2-0.4,0.3-0.7,0.6-1s0.5-0.6,0.8-0.9c0.3-0.2,0.7-0.4,1.2-0.6
		c0.5-0.1,1-0.2,1.6-0.2c1.5,0,2.8,0.5,3.7,1.5c0.9,1,1.4,2.3,1.4,4.1v9.4h-2.3v-9c0-1.3-0.3-2.3-0.9-3c-0.6-0.6-1.4-1-2.6-1
		c-0.5,0-0.9,0.1-1.3,0.2c-0.4,0.1-0.8,0.3-1.2,0.5c-0.3,0.2-0.6,0.5-0.8,0.9c-0.2,0.4-0.3,0.8-0.3,1.2v10.1H863.1z"/>
	<path class="st0" d="M879.9,367.1l9.9-25.4h2l-9.9,25.4H879.9z"/>
	<path class="st0" d="M896.7,360.4l10.1-5.7v-0.2l-10.1-5.7v-2.4l12.2,7.1v2.3l-12.2,7V360.4z"/>
</g>
</svg>
