<svg width="32" height="32" viewBox="0 0 32 32" fill="none" xmlns="http://www.w3.org/2000/svg">
<rect width="32" height="32" fill="white"/>
<path d="M17.118 5.19692C21.0501 5.19703 21.9151 6.88659 21.9151 8.96012C21.9151 6.88659 22.7802 5.19703 26.7123 5.19692C26.6909 7.25389 25.7991 9.65132 21.9151 9.65132C18.0311 9.65132 17.1393 7.25389 17.118 5.19692Z" fill="#ACB63B"/>
<path d="M17.118 10.2655C21.0501 10.2656 21.9151 11.9552 21.9151 14.0287C21.9151 11.9552 22.7802 10.2656 26.7123 10.2655C26.6909 12.3225 25.7991 14.7199 21.9151 14.7199C18.0311 14.7199 17.1393 12.3225 17.118 10.2655Z" fill="#659858"/>
<path fill-rule="evenodd" clip-rule="evenodd" d="M18.086 25.6843C17.8447 25.8406 17.5179 26 17.1212 26V24.56C17.1244 24.56 17.1739 24.5594 17.303 24.4758C17.4265 24.3957 17.5524 24.2885 17.7292 24.138C17.7468 24.1229 17.765 24.1075 17.7837 24.0915C17.79 24.0862 17.7964 24.0807 17.8029 24.0752C18.1503 23.7796 18.7373 23.28 19.52 23.28C20.2976 23.28 20.8386 23.774 21.1568 24.0645C21.1728 24.0791 21.1882 24.0932 21.2031 24.1067C21.598 24.4649 21.748 24.56 21.9188 24.56C22.0896 24.56 22.2396 24.4649 22.6345 24.1067C22.6494 24.0932 22.6648 24.0791 22.6808 24.0645C22.999 23.774 23.54 23.28 24.3176 23.28C25.1003 23.28 25.6873 23.7796 26.0347 24.0752C26.0412 24.0807 26.0475 24.0862 26.0539 24.0915C26.0726 24.1075 26.0908 24.1229 26.1084 24.138C26.2852 24.2885 26.4111 24.3957 26.5346 24.4758C26.6637 24.5594 26.7132 24.56 26.7164 24.56V26C26.3197 26 25.9929 25.8406 25.7516 25.6843C25.543 25.5491 25.3412 25.3767 25.1795 25.2384C25.1593 25.2212 25.1398 25.2045 25.121 25.1885C24.7131 24.8417 24.5078 24.72 24.3176 24.72C24.1468 24.72 23.9968 24.8152 23.6019 25.1734C23.587 25.1868 23.5716 25.2009 23.5556 25.2155C23.2374 25.5061 22.6964 26 21.9188 26C21.1412 26 20.6002 25.5061 20.282 25.2155C20.266 25.2009 20.2506 25.1868 20.2357 25.1734C19.8408 24.8152 19.6908 24.72 19.52 24.72C19.3298 24.72 19.1245 24.8417 18.7166 25.1885C18.6978 25.2045 18.6783 25.2212 18.6582 25.2384C18.4964 25.3767 18.2946 25.5491 18.086 25.6843Z" fill="#4C7741"/>
<path fill-rule="evenodd" clip-rule="evenodd" d="M18.086 18.8042C17.8447 18.9605 17.5179 19.1199 17.1212 19.1199V17.6799C17.1244 17.6799 17.1739 17.6793 17.303 17.5956C17.4265 17.5156 17.5524 17.4084 17.7292 17.2579C17.7468 17.2428 17.765 17.2273 17.7837 17.2114C17.79 17.206 17.7964 17.2006 17.8029 17.1951C18.1503 16.8995 18.7373 16.3999 19.52 16.3999C20.2976 16.3999 20.8386 16.8938 21.1568 17.1844C21.1728 17.199 21.1882 17.2131 21.2031 17.2266C21.598 17.5847 21.748 17.6799 21.9188 17.6799C22.0896 17.6799 22.2396 17.5847 22.6345 17.2266C22.6494 17.2131 22.6648 17.199 22.6808 17.1844C22.999 16.8938 23.54 16.3999 24.3176 16.3999C25.1003 16.3999 25.6873 16.8995 26.0347 17.1951C26.0412 17.2006 26.0475 17.206 26.0539 17.2114C26.0726 17.2273 26.0908 17.2428 26.1084 17.2579C26.2852 17.4084 26.4111 17.5156 26.5346 17.5956C26.6637 17.6793 26.7132 17.6799 26.7164 17.6799V19.1199C26.3197 19.1199 25.9929 18.9605 25.7516 18.8042C25.543 18.669 25.3412 18.4965 25.1795 18.3583C25.1593 18.3411 25.1398 18.3244 25.121 18.3084C24.7131 17.9615 24.5078 17.8399 24.3176 17.8399C24.1468 17.8399 23.9968 17.9351 23.6019 18.2932C23.587 18.3067 23.5716 18.3208 23.5556 18.3354C23.2374 18.626 22.6964 19.1199 21.9188 19.1199C21.1412 19.1199 20.6002 18.626 20.282 18.3354C20.266 18.3208 20.2506 18.3067 20.2357 18.2932C19.8408 17.9351 19.6908 17.8399 19.52 17.8399C19.3298 17.8399 19.1245 17.9615 18.7166 18.3084C18.6978 18.3244 18.6783 18.3411 18.6582 18.3583C18.4964 18.4965 18.2946 18.669 18.086 18.8042Z" fill="#4C7741"/>
<path fill-rule="evenodd" clip-rule="evenodd" d="M18.1186 22.0369C17.8808 22.2102 17.5423 22.4 17.1213 22.4V20.96C17.1176 20.96 17.1157 20.9603 17.1157 20.9603C17.1157 20.9603 17.1605 20.9533 17.2705 20.8732C17.3944 20.7828 17.5211 20.6614 17.698 20.4919C17.7157 20.475 17.7338 20.4576 17.7525 20.4397C17.9382 20.2621 18.177 20.0371 18.4501 19.8605C18.7309 19.6788 19.0897 19.52 19.5201 19.52C20.3245 19.52 20.8743 20.0862 21.1835 20.4046C21.201 20.4226 21.2177 20.4398 21.2337 20.456C21.6413 20.872 21.7813 20.96 21.9188 20.96C22.0564 20.96 22.1964 20.872 22.604 20.456C22.62 20.4398 22.6367 20.4226 22.6542 20.4046C22.9634 20.0862 23.5132 19.52 24.3176 19.52C24.748 19.52 25.1068 19.6788 25.3876 19.8605C25.6607 20.0371 25.8995 20.2621 26.0852 20.4397C26.1039 20.4576 26.122 20.475 26.1397 20.4919C26.3166 20.6614 26.4433 20.7828 26.5672 20.8732C26.6772 20.9533 26.722 20.9603 26.722 20.9603C26.722 20.9603 26.7201 20.96 26.7164 20.96V22.4C26.2954 22.4 25.9569 22.2102 25.7191 22.0369C25.5109 21.8851 25.31 21.6919 25.1483 21.5365C25.1282 21.5171 25.1086 21.4983 25.0898 21.4803C24.8991 21.2979 24.7499 21.1629 24.6055 21.0696C24.469 20.9812 24.381 20.96 24.3176 20.96C24.1801 20.96 24.0401 21.0481 23.6325 21.464C23.6165 21.4803 23.5998 21.4975 23.5823 21.5155C23.2731 21.8339 22.7233 22.4 21.9188 22.4C21.1144 22.4 20.5646 21.8339 20.2554 21.5155C20.2379 21.4975 20.2212 21.4803 20.2052 21.464C19.7976 21.0481 19.6576 20.96 19.5201 20.96C19.4567 20.96 19.3687 20.9812 19.2322 21.0696C19.0878 21.1629 18.9386 21.2979 18.7479 21.4803C18.7291 21.4983 18.7095 21.5171 18.6894 21.5365C18.5277 21.6919 18.3268 21.8851 18.1186 22.0369Z" fill="#ACB63B"/>
<path fill-rule="evenodd" clip-rule="evenodd" d="M9.91758 14.7201C12.5672 14.7201 14.7152 12.5711 14.7152 9.92012C14.7152 7.26915 12.5672 5.12012 9.91758 5.12012C7.26795 5.12012 5.12 7.26915 5.12 9.92012C5.12 12.5711 7.26795 14.7201 9.91758 14.7201ZM9.9976 13.44C11.9848 13.44 13.5958 11.8282 13.5958 9.83999C13.5958 7.85177 11.9848 6.23999 9.9976 6.23999C8.01038 6.23999 6.39941 7.85177 6.39941 9.83999C6.39941 11.8282 8.01038 13.44 9.9976 13.44Z" fill="#4C7741"/>
<ellipse cx="9.99753" cy="9.84009" rx="1.99899" ry="2" fill="#ACB63B"/>
<path d="M5.12039 17.2015C9.0525 17.2016 9.91758 19.4999 9.91758 21.6964L9.91999 21.9201L10.0775 21.9201C13.9615 21.9201 14.6934 24.4598 14.7148 26.6388C10.7827 26.6386 9.91758 24.3404 9.91758 22.1438C9.91758 24.3404 9.0525 26.6386 5.12039 26.6388C5.14177 24.4598 5.87366 21.9201 9.75766 21.9201C5.87366 21.9201 5.14177 19.3805 5.12039 17.2015Z" fill="#659858"/>
<path d="M9.92004 21.9201C9.92004 19.8466 10.48 17.1969 14.7172 17.1969C14.64 19.6801 13.804 21.9201 9.92004 21.9201Z" fill="#ACB63B"/>
</svg>
