<svg width="60" height="61" viewBox="0 0 60 61" fill="none" xmlns="http://www.w3.org/2000/svg">
<path d="M5.09033 31.3013C4.91781 30.7828 4.91781 30.2224 5.09033 29.7038C8.55783 19.2713 18.4003 11.7463 30.0003 11.7463C41.5953 11.7463 51.4328 19.2638 54.9078 29.6913C55.0828 30.2088 55.0828 30.7688 54.9078 31.2888C51.4428 41.7213 41.6003 49.2463 30.0003 49.2463C18.4053 49.2463 8.56533 41.7288 5.09033 31.3013Z" stroke="#4C7741" stroke-width="3" stroke-linecap="round" stroke-linejoin="round"/>
<path d="M37.5 30.4963C37.5 32.4855 36.7098 34.3931 35.3033 35.7996C33.8968 37.2062 31.9891 37.9963 30 37.9963C28.0109 37.9963 26.1032 37.2062 24.6967 35.7996C23.2902 34.3931 22.5 32.4855 22.5 30.4963C22.5 28.5072 23.2902 26.5996 24.6967 25.193C26.1032 23.7865 28.0109 22.9963 30 22.9963C31.9891 22.9963 33.8968 23.7865 35.3033 25.193C36.7098 26.5996 37.5 28.5072 37.5 30.4963Z" stroke="#4C7741" stroke-width="3" stroke-linecap="round" stroke-linejoin="round"/>
</svg>
