<svg width="56" height="52" viewBox="0 0 56 52" fill="none" xmlns="http://www.w3.org/2000/svg">
    <path d="M50.3056 1.69012C49.9688 1.1903 50.1058 0.515279 50.6114 0.182427C51.1171 -0.150425 51.7999 -0.0150659 52.1367 0.48476C54.5775 4.10793 56 8.45994 56 13.1371C56 18.081 54.4107 22.6612 51.7096 26.4015C51.3567 26.8902 50.6697 27.0036 50.1753 26.6547C49.6808 26.3058 49.5661 25.6268 49.9191 25.138C52.3626 21.7543 53.8001 17.6132 53.8001 13.1371C53.8001 8.90202 52.5134 4.96734 50.3056 1.69012Z" fill="#171717"/>
    <path d="M5.38858 0.182427C5.89423 0.515279 6.03116 1.1903 5.69444 1.69012C3.48663 4.96734 2.19995 8.90202 2.19995 13.1371C2.19995 17.6132 3.63736 21.7543 6.08092 25.138C6.43388 25.6268 6.31919 26.3058 5.82474 26.6547C5.3303 27.0036 4.64334 26.8902 4.29038 26.4015C1.58934 22.6612 0 18.081 0 13.1371C0 8.45994 1.42249 4.10793 3.86335 0.48476C4.20007 -0.0150659 4.88295 -0.150425 5.38858 0.182427Z" fill="#171717"/>
    <path d="M12.6649 5.1385C12.9976 4.63282 12.8623 3.94989 12.3628 3.61314C11.8633 3.27638 11.1886 3.41333 10.856 3.91901C9.05157 6.662 8 9.95701 8 13.4973C8 17.2396 9.17495 20.7074 11.1716 23.539C11.5203 24.0335 12.199 24.1482 12.6875 23.7952C13.1759 23.4422 13.2892 22.7552 12.9405 22.2607C11.1982 19.7899 10.1733 16.7664 10.1733 13.4973C10.1733 10.4043 11.0908 7.53148 12.6649 5.1385Z" fill="#171717"/>
    <path d="M18.6969 5.33199C19.2122 5.67708 19.3518 6.37691 19.0086 6.89511C17.8022 8.71701 17.0991 10.904 17.0991 13.2595C17.0991 15.749 17.8845 18.0507 19.2199 19.9319C19.5796 20.4387 19.4627 21.1427 18.9588 21.5044C18.4549 21.8661 17.7549 21.7486 17.3952 21.2419C15.7974 18.991 14.8571 16.234 14.8571 13.2595C14.8571 10.4456 15.6986 7.82601 17.1426 5.64544C17.4858 5.12724 18.1816 4.9869 18.6969 5.33199Z" fill="#171717"/>
    <path d="M29.1431 17.4704C30.8076 16.882 32.0001 15.2945 32.0001 13.4286C32.0001 11.0616 30.0814 9.14285 27.7144 9.14285C25.3475 9.14285 23.4287 11.0616 23.4287 13.4286C23.4287 15.502 24.9011 17.2315 26.8574 17.6286V33.7143H29.1431V17.4704Z" fill="#171717"/>
    <path d="M52.0003 47.5938V41.6454C52.0003 39.212 50.027 37.2393 47.5928 37.2393H39.9029C38.7575 37.2393 37.657 36.7934 36.8347 35.9963L35.7629 34.9573C34.9406 34.1601 33.8402 33.7143 32.6947 33.7143H22.6433C21.4744 33.7143 20.3534 34.1785 19.5268 35.0048L18.5827 35.9487C17.7561 36.775 16.6351 37.2393 15.4661 37.2393H7.26485C4.8307 37.2393 2.85742 39.212 2.85742 41.6454V47.5938C2.85742 50.0273 4.8307 52 7.26485 52H47.5928C50.027 52 52.0003 50.0273 52.0003 47.5938Z" fill="#171717"/>
    <path d="M36.9911 6.8951C36.648 6.3769 36.7875 5.67707 37.3028 5.33199C37.8181 4.9869 38.514 5.12723 38.8571 5.64543C40.3011 7.826 41.1426 10.4456 41.1426 13.2595C41.1426 16.234 40.2023 18.9909 38.6045 21.2419C38.2449 21.7486 37.5448 21.8661 37.0409 21.5044C36.537 21.1427 36.4202 20.4387 36.7798 19.9319C38.1152 18.0507 38.9007 15.749 38.9007 13.2595C38.9007 10.904 38.1976 8.71701 36.9911 6.8951Z" fill="#171717"/>
    <path d="M43.6372 3.61314C43.1377 3.94989 43.0024 4.63282 43.3351 5.1385C44.9092 7.53149 45.8267 10.4043 45.8267 13.4973C45.8267 16.7664 44.8018 19.7899 43.0595 22.2607C42.7108 22.7552 42.8241 23.4422 43.3125 23.7952C43.801 24.1482 44.4797 24.0335 44.8284 23.539C46.825 20.7074 48 17.2396 48 13.4973C48 9.95701 46.9484 6.662 45.144 3.91901C44.8114 3.41333 44.1367 3.27639 43.6372 3.61314Z" fill="#171717"/>
</svg>
