<svg width="60" height="61" viewBox="0 0 60 61" fill="none" xmlns="http://www.w3.org/2000/svg">
<path d="M22.5 17.3711V37.9961M37.5 22.9961V43.6211M38.7575 52.3661L50.945 46.2736C51.8975 45.7986 52.5 44.8236 52.5 43.7586V12.5461C52.5 10.4561 50.3 9.09613 48.43 10.0311L38.7575 14.8661C37.965 15.2636 37.0325 15.2636 36.2425 14.8661L23.7575 8.62613C23.367 8.43095 22.9365 8.32935 22.5 8.32935C22.0635 8.32935 21.633 8.43095 21.2425 8.62613L9.055 14.7186C8.1 15.1961 7.5 16.1711 7.5 17.2336V48.4461C7.5 50.5361 9.7 51.8961 11.57 50.9611L21.2425 46.1261C22.035 45.7286 22.9675 45.7286 23.7575 46.1261L36.2425 52.3686C37.035 52.7636 37.9675 52.7636 38.7575 52.3686V52.3661Z" stroke="#4C7741" stroke-width="3" stroke-linecap="round" stroke-linejoin="round"/>
</svg>
