<svg width="33" height="71" viewBox="0 0 33 71" fill="none" xmlns="http://www.w3.org/2000/svg">
    <path d="M7.25862 36.3276C7.25862 36.2603 7.24504 36.1937 7.2187 36.1318L0.848387 21.1616C0.618494 20.6213 0.5 20.0402 0.5 19.4531V16.3052C0.5 7.57622 7.57622 0.5 16.3052 0.5C25.0341 0.5 32.1104 7.57622 32.1104 16.3052V19.4969C32.1104 20.0588 32.0021 20.6154 31.7915 21.1363L25.7261 36.1402C25.702 36.1997 25.6897 36.2634 25.6897 36.3276V60.2747L23.9584 67.9989L21.9586 60.2665V36.3276C21.9586 36.0515 21.7348 35.8276 21.4586 35.8276H11.8276C11.5514 35.8276 11.3276 36.0515 11.3276 36.3276V60.2624L9.15642 68.1329L7.25862 60.2706V36.3276Z" fill="#171717" stroke="#171717" stroke-linejoin="round"/>
    <path d="M26.0338 17.5725C26.5861 17.5725 27.0387 17.1233 26.9883 16.5733C26.4841 11.0694 21.8555 6.75867 16.22 6.75867C10.5846 6.75867 5.95602 11.0694 5.45179 16.5733C5.40141 17.1233 5.85397 17.5725 6.40625 17.5725H26.0338Z" fill="white"/>
    <path fill-rule="evenodd" clip-rule="evenodd" d="M19.7659 19.2341C19.3427 19.6573 18.6567 19.6579 18.2327 19.2355L12.5492 13.573C12.1241 13.1495 12.1235 12.4613 12.5478 12.037C12.971 11.6138 13.657 11.6132 14.081 12.0356L19.7645 17.6981C20.1896 18.1216 20.1902 18.8098 19.7659 19.2341Z" fill="#171717"/>
</svg>
