<svg width="34" height="69" viewBox="0 0 34 69" fill="none" xmlns="http://www.w3.org/2000/svg">
    <mask id="path-1-inside-1_161_389" fill="white">
        <path fill-rule="evenodd" clip-rule="evenodd" d="M0.861943 21.4092L7.23225 36.3795V60.382L9.14401 68.3021C9.26513 68.8039 9.97477 68.8154 10.112 68.3177L12.3012 60.382V36.3795H21.9323V60.382L23.9479 68.176C24.0794 68.6842 24.8051 68.6723 24.9199 68.1601L26.6633 60.382V36.3795L32.7287 21.3756C32.9634 20.7951 33.084 20.1749 33.084 19.5488V16.3571C33.084 7.35196 25.7839 0.0518799 16.7788 0.0518799C7.77371 0.0518799 0.473633 7.35196 0.473633 16.3571V19.505C0.473633 20.1594 0.605706 20.8071 0.861943 21.4092ZM27.4619 16.6252C27.5123 17.1752 27.0598 17.6243 26.5075 17.6243H6.87988C6.3276 17.6243 5.87504 17.1752 5.92543 16.6252C6.42965 11.1213 11.0583 6.81055 16.6937 6.81055C22.3291 6.81055 26.9577 11.1213 27.4619 16.6252Z"/>
    </mask>
    <path fill-rule="evenodd" clip-rule="evenodd" d="M0.861943 21.4092L7.23225 36.3795V60.382L9.14401 68.3021C9.26513 68.8039 9.97477 68.8154 10.112 68.3177L12.3012 60.382V36.3795H21.9323V60.382L23.9479 68.176C24.0794 68.6842 24.8051 68.6723 24.9199 68.1601L26.6633 60.382V36.3795L32.7287 21.3756C32.9634 20.7951 33.084 20.1749 33.084 19.5488V16.3571C33.084 7.35196 25.7839 0.0518799 16.7788 0.0518799C7.77371 0.0518799 0.473633 7.35196 0.473633 16.3571V19.505C0.473633 20.1594 0.605706 20.8071 0.861943 21.4092ZM27.4619 16.6252C27.5123 17.1752 27.0598 17.6243 26.5075 17.6243H6.87988C6.3276 17.6243 5.87504 17.1752 5.92543 16.6252C6.42965 11.1213 11.0583 6.81055 16.6937 6.81055C22.3291 6.81055 26.9577 11.1213 27.4619 16.6252Z" fill="#171717"/>
    <path d="M12.3012 35.8795H7.23225V36.8795H12.3012V35.8795ZM26.6633 35.8795H21.9323V36.8795H26.6633V35.8795ZM7.23225 36.3795H8.23225C8.23225 36.2449 8.2051 36.1117 8.15241 35.9879L7.23225 36.3795ZM0.861943 21.4092L-0.0582123 21.8008L-0.058212 21.8008L0.861943 21.4092ZM7.23225 60.382H6.23225C6.23225 60.461 6.24163 60.5398 6.26017 60.6166L7.23225 60.382ZM9.14401 68.3021L10.1161 68.0674L10.1161 68.0674L9.14401 68.3021ZM10.112 68.3177L9.14805 68.0518L9.14805 68.0518L10.112 68.3177ZM12.3012 60.382L13.2652 60.6479C13.2891 60.5613 13.3012 60.4718 13.3012 60.382H12.3012ZM12.3012 36.3795V35.3795C11.7489 35.3795 11.3012 35.8272 11.3012 36.3795H12.3012ZM21.9323 36.3795H22.9323C22.9323 35.8272 22.4845 35.3795 21.9323 35.3795V36.3795ZM21.9323 60.382H20.9323C20.9323 60.4664 20.943 60.5506 20.9641 60.6324L21.9323 60.382ZM23.9479 68.176L22.9798 68.4263L22.9798 68.4263L23.9479 68.176ZM24.9199 68.1601L25.8957 68.3788L25.8957 68.3788L24.9199 68.1601ZM26.6633 60.382L27.6391 60.6007C27.6552 60.5289 27.6633 60.4555 27.6633 60.382H26.6633ZM26.6633 36.3795L25.7362 36.0047C25.688 36.1238 25.6633 36.251 25.6633 36.3795H26.6633ZM32.7287 21.3756L31.8016 21.0008L31.8016 21.0008L32.7287 21.3756ZM27.4619 16.6252L28.4578 16.534L28.4578 16.534L27.4619 16.6252ZM5.92543 16.6252L6.92126 16.7164L6.92126 16.7164L5.92543 16.6252ZM16.6937 6.81055L16.6937 7.81055L16.6937 6.81055ZM8.15241 35.9879L1.7821 21.0177L-0.058212 21.8008L6.3121 36.771L8.15241 35.9879ZM8.23225 60.382V36.3795H6.23225V60.382H8.23225ZM10.1161 68.0674L8.20434 60.1473L6.26017 60.6166L8.17193 68.5367L10.1161 68.0674ZM9.14805 68.0518C9.28533 67.5542 9.99497 67.5656 10.1161 68.0674L8.17193 68.5367C8.5353 70.0422 10.6642 70.0766 11.076 68.5837L9.14805 68.0518ZM11.3372 60.116L9.14805 68.0518L11.076 68.5837L13.2652 60.6479L11.3372 60.116ZM11.3012 36.3795V60.382H13.3012V36.3795H11.3012ZM21.9323 35.3795H12.3012V37.3795H21.9323V35.3795ZM22.9323 60.382V36.3795H20.9323V60.382H22.9323ZM24.9161 67.9256L22.9004 60.1316L20.9641 60.6324L22.9798 68.4263L24.9161 67.9256ZM23.9441 67.9414C24.0589 67.4292 24.7847 67.4174 24.9161 67.9256L22.9798 68.4263C23.3741 69.951 25.5513 69.9155 25.8957 68.3788L23.9441 67.9414ZM25.6875 60.1633L23.9441 67.9414L25.8957 68.3788L27.6391 60.6007L25.6875 60.1633ZM25.6633 36.3795V60.382H27.6633V36.3795H25.6633ZM31.8016 21.0008L25.7362 36.0047L27.5904 36.7543L33.6558 21.7504L31.8016 21.0008ZM32.084 19.5488C32.084 20.0464 31.9881 20.5394 31.8016 21.0008L33.6558 21.7504C33.9386 21.0508 34.084 20.3033 34.084 19.5488H32.084ZM32.084 16.3571V19.5488H34.084V16.3571H32.084ZM16.7788 1.05188C25.2316 1.05188 32.084 7.90424 32.084 16.3571H34.084C34.084 6.79967 26.3362 -0.94812 16.7788 -0.94812V1.05188ZM1.47363 16.3571C1.47363 7.90425 8.32599 1.05188 16.7788 1.05188V-0.94812C7.22142 -0.94812 -0.526367 6.79968 -0.526367 16.3571H1.47363ZM1.47363 19.505V16.3571H-0.526367V19.505H1.47363ZM1.7821 21.0177C1.57855 20.5393 1.47363 20.0248 1.47363 19.505H-0.526367C-0.526367 20.294 -0.367137 21.0748 -0.0582123 21.8008L1.7821 21.0177ZM26.5075 18.6243C27.5855 18.6243 28.5674 17.7304 28.4578 16.534L26.4661 16.7164C26.465 16.7039 26.4666 16.686 26.4733 16.6679C26.4795 16.651 26.4877 16.6402 26.4934 16.6342C26.5039 16.6234 26.5106 16.6243 26.5075 16.6243V18.6243ZM6.87988 18.6243H26.5075V16.6243H6.87988V18.6243ZM4.9296 16.534C4.81999 17.7304 5.8019 18.6243 6.87988 18.6243V16.6243C6.87676 16.6243 6.88344 16.6234 6.89392 16.6342C6.8997 16.6402 6.90788 16.6511 6.91408 16.6679C6.92074 16.686 6.92241 16.7039 6.92126 16.7164L4.9296 16.534ZM16.6937 5.81055C10.5366 5.81055 5.48055 10.52 4.9296 16.534L6.92126 16.7164C7.37876 11.7225 11.5799 7.81055 16.6937 7.81055L16.6937 5.81055ZM28.4578 16.534C27.9068 10.52 22.8508 5.81055 16.6937 5.81055L16.6937 7.81055C21.8074 7.81055 26.0086 11.7225 26.4661 16.7164L28.4578 16.534Z" fill="#171717" mask="url(#path-1-inside-1_161_389)"/>
    <path fill-rule="evenodd" clip-rule="evenodd" d="M20.2395 19.286C19.8163 19.7092 19.1303 19.7098 18.7063 19.2874L13.0229 13.6249C12.5978 13.2014 12.5971 12.5132 13.0215 12.0889V12.0889C13.4447 11.6657 14.1306 11.665 14.5546 12.0875L20.2381 17.75C20.6632 18.1735 20.6638 18.8616 20.2395 19.286V19.286Z" fill="#171717"/>
</svg>
