<svg width="23" height="23" viewBox="0 0 23 23" fill="none" xmlns="http://www.w3.org/2000/svg">
    <path d="M11.4961 9.19998H12.4961C12.4961 6.83443 12.992 4.90905 14.404 3.54952C15.7184 2.28392 17.9987 1.34199 21.9474 1.20202C21.7936 3.20928 21.2252 5.18794 19.9453 6.72918C18.4773 8.49691 15.9327 9.85597 11.4961 9.85597C7.0595 9.85597 4.51493 8.49692 3.04695 6.72918C1.76707 5.18794 1.19864 3.20928 1.04487 1.20202C4.99354 1.34199 7.27383 2.28392 8.58828 3.54952C10.0003 4.90905 10.4961 6.83443 10.4961 9.19998H11.4961Z" stroke="#4C7741" stroke-width="2"/>
    <path d="M11.4961 21.3439H12.4961C12.4961 18.9784 12.992 17.053 14.404 15.6934C15.7184 14.4278 17.9987 13.4859 21.9474 13.3459C21.7936 15.3532 21.2252 17.3319 19.9453 18.8731C18.4773 20.6408 15.9327 21.9999 11.4961 21.9999C7.0595 21.9999 4.51493 20.6408 3.04695 18.8731C1.76707 17.3319 1.19864 15.3532 1.04487 13.3459C4.99354 13.4859 7.27383 14.4278 8.58828 15.6934C10.0003 17.053 10.4961 18.9784 10.4961 21.3439H11.4961Z" stroke="#4C7741" stroke-width="2"/>
</svg>
