<svg aria-hidden="true" width="66" height="52" viewBox="0 0 66 52" fill="none" xmlns="http://www.w3.org/2000/svg">
    <path fillRule="evenodd" clipRule="evenodd" d="M32.7522 0C44.8114 0 56.1073 4.74153 64.559 13.3513C65.8362 14.6526 65.8168 16.743 64.5157 18.0203C63.2145 19.2975 61.1242 19.2783 59.8467 17.977C52.6469 10.6424 43.0246 6.60305 32.7522 6.60305C22.4803 6.60305 12.858 10.6424 5.65751 17.9774C5.01122 18.6356 4.15637 18.9659 3.30133 18.9659C2.46653 18.9661 1.63137 18.6514 0.988662 18.0205C-0.312506 16.7431 -0.331841 14.653 0.945517 13.3517C9.39756 4.74153 20.6934 0 32.7522 0ZM32.7517 12.381C23.6324 12.381 14.9037 16.2746 8.80322 23.0635C7.58458 24.4198 7.69594 26.5073 9.05243 27.7261C9.68314 28.2929 10.4719 28.572 11.258 28.572C12.1623 28.5718 13.063 28.2027 13.7148 27.4771C18.5648 22.0798 25.5036 18.9842 32.7518 18.9842C40.0001 18.9842 46.939 22.0798 51.7892 27.4769C53.008 28.8332 55.0955 28.9446 56.4516 27.7259C57.8079 26.5071 57.9193 24.4197 56.7006 23.0635C50.5998 16.2745 41.8708 12.381 32.7517 12.381ZM16.6241 33.0683C20.3395 27.867 26.3689 24.7618 32.7527 24.7618C39.1368 24.7618 45.1662 27.8668 48.8812 33.0684C49.9411 34.5522 49.5973 36.6142 48.1136 37.6741C46.6296 38.7341 44.5676 38.3898 43.5079 36.9064C41.0295 33.4365 37.0089 31.365 32.7525 31.365C28.4965 31.365 24.4757 33.4365 21.9969 36.9066C21.3528 37.8085 20.3379 38.2894 19.3078 38.2894C18.6436 38.2894 17.9731 38.0894 17.3915 37.6739C15.9079 36.6141 15.5641 34.552 16.6241 33.0683ZM40.18 44.5714C40.18 48.6741 36.8541 52 32.7515 52C28.6488 52 25.3229 48.6741 25.3229 44.5714C25.3229 40.4688 28.6488 37.1429 32.7515 37.1429C36.8541 37.1429 40.18 40.4688 40.18 44.5714Z" fill="#171717"/>
</svg>
