<svg width="2006" height="539" viewBox="0 0 2006 539" fill="none" xmlns="http://www.w3.org/2000/svg">
<path d="M808.423 148.98C659.923 380.48 578.65 366.412 152.922 427.468C27.5047 436.269 -15.6838 490.504 6.0427 511.627C21.0768 526.243 67.109 546.447 152.923 534.98H1431.42H1956.33C1968.92 534.98 2068.3 500.195 1943.48 432.47C1872.69 380.171 1567.26 306.527 1431.42 148.98C1294.42 -18.0198 954.608 -78.9123 808.423 148.98Z" fill="#ACB63B" fill-opacity="0.25"/>
<path d="M1186.42 229.86C1283.22 177.46 1404.7 288.942 1483.66 343.993C1544.9 377.167 1587.16 387.107 1755 475.837C1888.54 546.436 1646.12 538.36 1429.92 538.36H569.923C669.256 451.86 886.822 284.86 962.422 308.86C1056.92 338.86 1065.42 295.36 1186.42 229.86Z" fill="#ACB63B" fill-opacity="0.3"/>
</svg>
